<svg xmlns="http://www.w3.org/2000/svg" viewBox="0 0 1600 900" width="1600" height="900" role="img">

  <defs>
    <linearGradient id="bg" x1="0" y1="0" x2="1" y2="1">
      <stop offset="0%" stop-color="#0c0c14"/>
      <stop offset="60%" stop-color="#070709"/>
      <stop offset="100%" stop-color="#040406"/>
    </linearGradient>
    <radialGradient id="glow" cx="50%" cy="45%" r="55%">
      <stop offset="0%" stop-color="#06d6a0" stop-opacity="0.20"/>
      <stop offset="100%" stop-color="#06d6a0" stop-opacity="0"/>
    </radialGradient>
    <radialGradient id="vig" cx="50%" cy="50%" r="72%">
      <stop offset="55%" stop-color="#000" stop-opacity="0"/>
      <stop offset="100%" stop-color="#000" stop-opacity="0.62"/>
    </radialGradient>
    <linearGradient id="sweep" x1="0" y1="0" x2="0" y2="1">
      <stop offset="0%" stop-color="#06d6a0" stop-opacity="0"/>
      <stop offset="50%" stop-color="#06d6a0" stop-opacity="0.55"/>
      <stop offset="100%" stop-color="#06d6a0" stop-opacity="0"/>
    </linearGradient>
    <filter id="soft" x="-30%" y="-30%" width="160%" height="160%">
      <feGaussianBlur stdDeviation="18"/>
    </filter>
    <filter id="grain">
      <feTurbulence type="fractalNoise" baseFrequency="0.9" numOctaves="3" seed="7"/>
      <feColorMatrix type="saturate" values="0"/>
      <feComponentTransfer><feFuncA type="linear" slope="0.05"/></feComponentTransfer>
    </filter>
  </defs>

  <rect width="1600" height="900" fill="url(#bg)"/>
  <g stroke="rgba(255,255,255,0.045)" stroke-width="1"><line x1="0" y1="0" x2="0" y2="900"/><line x1="64" y1="0" x2="64" y2="900"/><line x1="128" y1="0" x2="128" y2="900"/><line x1="192" y1="0" x2="192" y2="900"/><line x1="256" y1="0" x2="256" y2="900"/><line x1="320" y1="0" x2="320" y2="900"/><line x1="384" y1="0" x2="384" y2="900"/><line x1="448" y1="0" x2="448" y2="900"/><line x1="512" y1="0" x2="512" y2="900"/><line x1="576" y1="0" x2="576" y2="900"/><line x1="640" y1="0" x2="640" y2="900"/><line x1="704" y1="0" x2="704" y2="900"/><line x1="768" y1="0" x2="768" y2="900"/><line x1="832" y1="0" x2="832" y2="900"/><line x1="896" y1="0" x2="896" y2="900"/><line x1="960" y1="0" x2="960" y2="900"/><line x1="1024" y1="0" x2="1024" y2="900"/><line x1="1088" y1="0" x2="1088" y2="900"/><line x1="1152" y1="0" x2="1152" y2="900"/><line x1="1216" y1="0" x2="1216" y2="900"/><line x1="1280" y1="0" x2="1280" y2="900"/><line x1="1344" y1="0" x2="1344" y2="900"/><line x1="1408" y1="0" x2="1408" y2="900"/><line x1="1472" y1="0" x2="1472" y2="900"/><line x1="1536" y1="0" x2="1536" y2="900"/><line x1="1600" y1="0" x2="1600" y2="900"/><line x1="0" y1="0" x2="1600" y2="0"/><line x1="0" y1="64" x2="1600" y2="64"/><line x1="0" y1="128" x2="1600" y2="128"/><line x1="0" y1="192" x2="1600" y2="192"/><line x1="0" y1="256" x2="1600" y2="256"/><line x1="0" y1="320" x2="1600" y2="320"/><line x1="0" y1="384" x2="1600" y2="384"/><line x1="0" y1="448" x2="1600" y2="448"/><line x1="0" y1="512" x2="1600" y2="512"/><line x1="0" y1="576" x2="1600" y2="576"/><line x1="0" y1="640" x2="1600" y2="640"/><line x1="0" y1="704" x2="1600" y2="704"/><line x1="0" y1="768" x2="1600" y2="768"/><line x1="0" y1="832" x2="1600" y2="832"/><line x1="0" y1="896" x2="1600" y2="896"/></g>
  <rect width="1600" height="900" fill="url(#glow)"/>

      <g stroke="#06d6a0" stroke-width="1" fill="none" opacity="0.12"><path d="M201.89 160.94 Q240.52 249.39 124.35 275.82"/><path d="M1347.66 199.53 Q1367.12 96.77 1245.53 50.08"/><path d="M505.71 838.71 Q633.5 720.3 603.83 697.51"/><path d="M1550.71 841.98 Q1375.72 877.35 1228.8 961.51"/><path d="M1507.35 674.38 Q1547.12 570.13 1608.12 537.47"/><path d="M268.75 398.98 Q342.39 289.18 293.66 220.27"/><path d="M950.32 879.26 Q811.38 968.67 723.38 889.56"/><path d="M92.8 264.96 Q-8.92 88.76 -124.29 82.97"/><path d="M885.95 277.03 Q810.6 86.14 818.95 45.58"/><path d="M1444.61 186.35 Q1371.28 124.76 1138.4 201.82"/><path d="M79.69 113.57 Q213.6 162.92 366.32 91.87"/></g>
      <path d="M400 646 Q534.29 569.25 622 302" fill="none" stroke="#06d6a0" stroke-width="1.8" opacity="0.45"/><path d="M622 302 Q821.25 484.43 858 540" fill="none" stroke="#06d6a0" stroke-width="1.8" opacity="0.45"/><path d="M858 540 Q1015.78 510.71 1118 300" fill="none" stroke="#06d6a0" stroke-width="1.8" opacity="0.45"/><path d="M1118 300 Q1155.44 555.25 1222 664" fill="none" stroke="#06d6a0" stroke-width="1.8" opacity="0.45"/><path d="M400 646 Q661.89 651.76 858 540" fill="none" stroke="#06d6a0" stroke-width="1.8" opacity="0.45"/><path d="M858 540 Q969.75 567.9 1222 664" fill="none" stroke="#06d6a0" stroke-width="1.8" opacity="0.45"/>
      
      <path d="M400 646 Q534.29 569.25 622 302" pathLength="100" stroke-dasharray="62 100"
            fill="none" stroke="#8b5cf6" stroke-width="2.6" opacity="0.8" stroke-linecap="round"/>
      <g transform="translate(548.61 477.6) rotate(-61.59)">
        <rect x="-14" y="-14" width="28" height="28" rx="6" fill="#8b5cf6" opacity="0.95"/>
        <path d="M-14 0 H14 M0 -14 V14" stroke="#0d0a16" stroke-width="2" opacity="0.45"/>
      </g>
      <path d="M858 540 Q1015.78 510.71 1118 300" pathLength="100" stroke-dasharray="38 100"
            fill="none" stroke="#8b5cf6" stroke-width="2.6" opacity="0.8" stroke-linecap="round"/>
      <g transform="translate(969.89 491.54) rotate(-35.71)">
        <rect x="-14" y="-14" width="28" height="28" rx="6" fill="#8b5cf6" opacity="0.95"/>
        <path d="M-14 0 H14 M0 -14 V14" stroke="#0d0a16" stroke-width="2" opacity="0.45"/>
      </g>
      <path d="M858 540 Q969.75 567.9 1222 664" pathLength="100" stroke-dasharray="74 100"
            fill="none" stroke="#8b5cf6" stroke-width="2.6" opacity="0.8" stroke-linecap="round"/>
      <g transform="translate(1100.33 618.64) rotate(19.96)">
        <rect x="-14" y="-14" width="28" height="28" rx="6" fill="#8b5cf6" opacity="0.95"/>
        <path d="M-14 0 H14 M0 -14 V14" stroke="#0d0a16" stroke-width="2" opacity="0.45"/>
      </g>
      
      <g>
        <circle cx="400" cy="646" r="27" fill="none" stroke="#06d6a0" stroke-width="1.2" opacity="0.3"/>
        <circle cx="400" cy="646" r="13" fill="none" stroke="#06d6a0" stroke-width="1.8" opacity="0.85"/>
        <circle cx="400" cy="646" r="4.5" fill="#06d6a0"/>
      </g>
      <g>
        <circle cx="622" cy="302" r="27" fill="none" stroke="#06d6a0" stroke-width="1.2" opacity="0.3"/>
        <circle cx="622" cy="302" r="13" fill="none" stroke="#06d6a0" stroke-width="1.8" opacity="0.85"/>
        <circle cx="622" cy="302" r="4.5" fill="#06d6a0"/>
      </g>
      <g>
        <circle cx="858" cy="540" r="27" fill="none" stroke="#06d6a0" stroke-width="1.2" opacity="0.3"/>
        <circle cx="858" cy="540" r="13" fill="none" stroke="#06d6a0" stroke-width="1.8" opacity="0.85"/>
        <circle cx="858" cy="540" r="4.5" fill="#06d6a0"/>
      </g>
      <g>
        <circle cx="1118" cy="300" r="27" fill="none" stroke="#06d6a0" stroke-width="1.2" opacity="0.3"/>
        <circle cx="1118" cy="300" r="13" fill="none" stroke="#06d6a0" stroke-width="1.8" opacity="0.85"/>
        <circle cx="1118" cy="300" r="4.5" fill="#06d6a0"/>
      </g>
      <g>
        <circle cx="1222" cy="664" r="27" fill="none" stroke="#06d6a0" stroke-width="1.2" opacity="0.3"/>
        <circle cx="1222" cy="664" r="13" fill="none" stroke="#06d6a0" stroke-width="1.8" opacity="0.85"/>
        <circle cx="1222" cy="664" r="4.5" fill="#06d6a0"/>
      </g>
      <g fill="none" stroke="#f59e0b">
        <circle cx="1118" cy="300" r="44" stroke-width="2" opacity="0.5"/>
        <circle cx="1118" cy="300" r="70" stroke-width="1.4" opacity="0.22"/>
      </g>

  <rect x="44" y="44" width="1512" height="812" fill="none"
        stroke="rgba(255,255,255,0.14)" stroke-width="1"/>
  <path d="M78 44 H44 V78" fill="none" stroke="#06d6a0" stroke-width="2" opacity="0.75"/><path d="M1522 44 H1556 V78" fill="none" stroke="#06d6a0" stroke-width="2" opacity="0.75"/><path d="M78 856 H44 V822" fill="none" stroke="#06d6a0" stroke-width="2" opacity="0.75"/><path d="M1522 856 H1556 V822" fill="none" stroke="#06d6a0" stroke-width="2" opacity="0.75"/>
  <text x="62" y="836" font-family="ui-monospace,'JetBrains Mono',monospace"
        font-size="19" letter-spacing="3.5" fill="#06d6a0" opacity="0.85">COURIER-OPS / 03</text>
  <circle cx="1534" cy="68" r="5" fill="#f0506e"/>
  <text x="1518" y="74" text-anchor="end" font-family="ui-monospace,'JetBrains Mono',monospace"
        font-size="16" letter-spacing="2" fill="#8a8f98">LIVE</text>

  <rect width="1600" height="900" fill="url(#vig)"/>
  <rect width="1600" height="900" filter="url(#grain)" opacity="0.55"/>
</svg>